HIERARCHY
ROOT hip
{
  OFFSET 0 0 0
  CHANNELS 6 Xposition Yposition Zposition Zrotation Yrotation Xrotation
  JOINT abdomen
  {
    OFFSET 0 20.6881 -0.73152
    CHANNELS 3 Zrotation Xrotation Yrotation
    JOINT chest
    {
      OFFSET 0 11.7043 -0.48768
      CHANNELS 3 Zrotation Xrotation Yrotation
      JOINT neck
      {
        OFFSET 0 22.1894 -2.19456
        CHANNELS 3 Zrotation Xrotation Yrotation
        JOINT head
        {
          OFFSET -0.24384 7.07133 1.2192
          CHANNELS 3 Zrotation Xrotation Yrotation
          JOINT leftEye
          {
            OFFSET 4.14528 8.04674 8.04672
            CHANNELS 3 Zrotation Xrotation Yrotation
            End Site
            {
              OFFSET 1 0 0
            }
          }
          JOINT rightEye
          {
            OFFSET -3.6576 8.04674 8.04672
            CHANNELS 3 Zrotation Xrotation Yrotation
            End Site
            {
              OFFSET 1 0 0
            }
          }
        }
      }
      JOINT rCollar
      {
        OFFSET -2.68224 19.2634 -4.8768
        CHANNELS 3 Zrotation Xrotation Yrotation
        JOINT rShldr
        {
          OFFSET -8.77824 -1.95073 1.46304
          CHANNELS 3 Zrotation Xrotation Yrotation
          JOINT rForeArm
          {
            OFFSET -28.1742 -1.7115 0.48768
            CHANNELS 3 Zrotation Xrotation Yrotation
            JOINT rHand
            {
              OFFSET -22.5879 0.773209 7.07136
              CHANNELS 3 Zrotation Xrotation Yrotation
              JOINT rThumb1
              {
                OFFSET -1.2192 -0.487915 3.41376
                CHANNELS 3 Zrotation Xrotation Yrotation
                JOINT rThumb2
                {
                  OFFSET -3.37035 -0.52449 3.41376
                  CHANNELS 3 Zrotation Xrotation Yrotation
                  End Site
                  {
                    OFFSET -1.78271 -1.18214 1.43049
                  }
                }
              }
              JOINT rIndex1
              {
                OFFSET -7.75947 0.938293 5.60832
                CHANNELS 3 Zrotation Xrotation Yrotation
                JOINT rIndex2
                {
                  OFFSET -2.54057 -0.884171 1.56538
                  CHANNELS 3 Zrotation Xrotation Yrotation
                  End Site
                  {
                    OFFSET -1.62519 -0.234802 1.16502
                  }
                }
              }
              JOINT rMid1
              {
                OFFSET -8.24714 1.18213 3.41376
                CHANNELS 3 Zrotation Xrotation Yrotation
                JOINT rMid2
                {
                  OFFSET -3.10165 -0.590103 1.0647
                  CHANNELS 3 Zrotation Xrotation Yrotation
                  End Site
                  {
                    OFFSET -2.48547 -0.328903 0.83742
                  }
                }
              }
              JOINT rRing1
              {
                OFFSET -8.82822 0.546677 1.51678
                CHANNELS 3 Zrotation Xrotation Yrotation
                JOINT rRing2
                {
                  OFFSET -2.60934 -0.819778 -0.0198488
                  CHANNELS 3 Zrotation Xrotation Yrotation
                  End Site
                  {
                    OFFSET -2.33842 -0.294052 0.168128
                  }
                }
              }
              JOINT rPinky1
              {
                OFFSET -8.27202 -0.0477905 -0.4584
                CHANNELS 3 Zrotation Xrotation Yrotation
                JOINT rPinky2
                {
                  OFFSET -1.82734 -0.647385 -0.700984
                  CHANNELS 3 Zrotation Xrotation Yrotation
                  End Site
                  {
                    OFFSET -1.69225 -0.51767 -0.607171
                  }
                }
              }
            }
          }
        }
      }
      JOINT lCollar
      {
        OFFSET 2.68224 19.2634 -4.8768
        CHANNELS 3 Zrotation Xrotation Yrotation
        JOINT lShldr
        {
          OFFSET 8.77824 -1.95073 1.46304
          CHANNELS 3 Zrotation Xrotation Yrotation
          JOINT lForeArm
          {
            OFFSET 28.1742 -1.7115 0.48768
            CHANNELS 3 Zrotation Xrotation Yrotation
            JOINT lHand
            {
              OFFSET 22.5879 0.773209 7.07136
              CHANNELS 3 Zrotation Xrotation Yrotation
              JOINT lThumb1
              {
                OFFSET 1.2192 -0.487915 3.41376
                CHANNELS 3 Zrotation Xrotation Yrotation
                JOINT lThumb2
                {
                  OFFSET 3.37035 -0.52449 3.41376
                  CHANNELS 3 Zrotation Xrotation Yrotation
                  End Site
                  {
                    OFFSET 1.78271 -1.18214 1.43049
                  }
                }
              }
              JOINT lIndex1
              {
                OFFSET 7.75947 0.938293 5.60832
                CHANNELS 3 Zrotation Xrotation Yrotation
                JOINT lIndex2
                {
                  OFFSET 2.54057 -0.884171 1.56538
                  CHANNELS 3 Zrotation Xrotation Yrotation
                  End Site
                  {
                    OFFSET 1.62519 -0.234802 1.16502
                  }
                }
              }
              JOINT lMid1
              {
                OFFSET 8.24714 1.18213 3.41376
                CHANNELS 3 Zrotation Xrotation Yrotation
                JOINT lMid2
                {
                  OFFSET 3.10165 -0.590103 1.0647
                  CHANNELS 3 Zrotation Xrotation Yrotation
                  End Site
                  {
                    OFFSET 2.48547 -0.328903 0.83742
                  }
                }
              }
              JOINT lRing1
              {
                OFFSET 8.82822 0.546677 1.51678
                CHANNELS 3 Zrotation Xrotation Yrotation
                JOINT lRing2
                {
                  OFFSET 2.60934 -0.819778 -0.0198488
                  CHANNELS 3 Zrotation Xrotation Yrotation
                  End Site
                  {
                    OFFSET 2.33842 -0.294052 0.168128
                  }
                }
              }
              JOINT lPinky1
              {
                OFFSET 8.27202 -0.0477905 -0.4584
                CHANNELS 3 Zrotation Xrotation Yrotation
                JOINT lPinky2
                {
                  OFFSET 1.82734 -0.647385 -0.700984
                  CHANNELS 3 Zrotation Xrotation Yrotation
                  End Site
                  {
                    OFFSET 1.69225 -0.51767 -0.607171
                  }
                }
              }
            }
          }
        }
      }
    }
  }
  JOINT rButtock
  {
    OFFSET -8.77824 4.35084 1.2192
    CHANNELS 3 Zrotation Xrotation Yrotation
    JOINT rThigh
    {
      OFFSET 0 -1.70687 -2.19456
      CHANNELS 3 Zrotation Xrotation Yrotation
      JOINT rShin
      {
        OFFSET 0 -36.8199 0.73152
        CHANNELS 3 Zrotation Xrotation Yrotation
        JOINT rFoot
        {
          OFFSET 0.73152 -45.1104 -5.12064
          CHANNELS 3 Zrotation Xrotation Yrotation
          End Site
          {
            OFFSET -1.1221 -3.69964 12.103
          }
        }
      }
    }
  }
  JOINT lButtock
  {
    OFFSET 8.77824 4.35084 1.2192
    CHANNELS 3 Zrotation Xrotation Yrotation
    JOINT lThigh
    {
      OFFSET 0 -1.70687 -2.19456
      CHANNELS 3 Zrotation Xrotation Yrotation
      JOINT lShin
      {
        OFFSET 0 -36.8199 0.73152
        CHANNELS 3 Zrotation Xrotation Yrotation
        JOINT lFoot
        {
          OFFSET -0.73152 -45.1104 -5.12064
          CHANNELS 3 Zrotation Xrotation Yrotation
          End Site
          {
            OFFSET 1.1221 -3.69964 12.103
          }
        }
      }
    }
  }
}
MOTION
Frames:	8
Frame Time:	0.00833333
8.6517 67.77149999999999 8.0061 -168.714179 89.258246 -168.181499 -1.9503 14.718322 -171.399578 -2.900293 5.653595 169.408195 1.370544 21.524519 72.326145 -33.392354 -2.354477 -106.590057 -3.535136 -0.78868 25.145835 13.352931 -0.347631 -2.96911 -1.435759 4.643174 2.734202 47.506115 -5.278381 17.563164 -11.497635 21.346039 106.393672 -4.340266 4.688709 -0.167655 -161.047438 -2.783669 89.175543 -152.898548 -11.127702 82.980806 -154.001841 -26.252161 123.481305 27.852599 -12.886793 -14.324733 -150.660359 12.816904 140.790008 26.2117 -31.141158 2.672954 -133.160518 -10.488203 175.981539 -118.991468 17.587761 169.301644 -128.200412 -47.614154 -113.638624 -151.106736 9.882992 -99.0514 1.851832 -67.703646 20.422236 125.425354 -11.249628 133.260442 -19.365159 44.788227 129.529169 163.296325 26.336385 -135.610074 86.58473 35.05517 -52.536632 -56.207535 -41.622324 -6.005203 -20.843905 -7.587885 5.519279 169.478291 -2.303076 -112.012843 167.311391 -38.477193 -155.683301 174.4894 -77.95203 -159.231593 13.839749 42.566655 -11.405911 63.654272 64.106928 -74.181035 20.011854 18.266825 12.51465 73.676508 61.472819 -127.819275 156.691348 75.224383 28.315352 168.767305 33.626541 83.658767 65.217333 6.157155 -24.547913 -154.315324 -18.227298 91.858418 -22.704651 14.017382 -25.207142 61.343981 -32.30623 3.850041 -70.058724 37.022233 -35.889192 126.513308 -33.917985 -157.836874
8.6997 67.7458 7.6391 175.873401 89.245536 176.012469 -0.210703 15.573447 -131.473965 3.53704 5.400106 129.532329 -18.350876 22.33995 -53.746324 34.334718 -8.33853 25.19376 -4.840498 -0.975276 22.770515 13.634054 -0.206917 -1.730753 4.955007 -68.066733 -12.400848 32.525664 7.130154 -21.943601 147.129582 -68.544962 10.290823 176.884201 -5.68738 145.063044 -175.09294 -16.069619 89.593684 -133.576077 5.554264 74.122771 -156.154793 -30.379611 124.015229 106.056682 -72.99603 40.449318 -0.607515 13.192578 0.548196 -164.871847 22.105997 145.88832 12.722774 -7.566757 5.781023 171.316337 6.687512 171.640178 -11.599981 2.902171 8.014717 37.813893 -15.412121 13.278881 128.400732 -83.073389 151.515014 -112.641949 42.318001 104.505793 7.430906 5.066429 -86.836435 1.41067 -30.743406 5.334662 162.069886 -7.371289 -86.854781 -83.807546 -48.815023 -54.287692 -27.737979 -20.96691 8.681792 7.534677 4.792428 -1.716703 159.249917 13.090912 -146.478888 -4.431399 -41.931888 0.528638 10.733471 20.199893 -2.647105 142.958199 19.337915 -154.250509 128.21775 -31.589972 92.11896 -26.733141 7.020015 28.370921 -0.511907 -0.283997 -10.356378 -3.18915 -42.243606 -175.986015 0.232051 -72.607666 78.931286 152.974435 -70.240688 -99.185115 -69.557732 43.356719 -41.974168 115.008355 3.44753 -91.504999 -73.200504 -44.521388 -138.960478 -73.075042 -54.880536 -164.145667
8.719000000000001 67.7075 7.213700000000001 163.457061 89.243051 163.3063 -1.075631 14.807512 -162.77135 -0.568777 6.164208 161.926222 -13.175784 35.394937 -141.958162 25.711738 39.778568 102.340952 -5.886142 -1.050815 20.227135 13.946216 -0.035626 -0.291281 -6.558561 -82.208853 -27.065804 35.781228 29.415729 -28.32195 -22.252959 67.413463 123.113764 -5.713664 10.623598 0.330677 -173.538051 -14.049504 90.369481 -114.831133 12.328755 60.937192 -24.015573 30.687305 17.904625 176.92249 -25.102761 113.795138 0.514189 11.059071 -0.884751 -173.297569 -2.999562 148.44103 -134.171206 -1.910689 173.563141 42.800192 16.391822 -3.321046 -9.525507 5.949449 8.920741 32.012365 41.231241 31.930604 -1.80744 -14.528098 3.561589 99.862711 -34.687308 167.163226 169.697452 10.667962 95.839565 2.785102 -26.946572 5.770738 -136.616494 -44.796728 -63.279187 151.216875 10.856674 -80.124829 144.358434 -41.627663 -127.111554 -51.581834 -32.765322 -1.973479 1.406323 -9.795121 7.763431 150.018441 -6.487973 -144.662932 10.939766 -1.511373 4.067198 134.931603 27.770818 -156.397712 -141.935567 61.397229 120.161635 140.632054 -57.927922 108.15344 -21.364864 6.54729 -25.905681 30.473767 -36.779845 125.257458 73.351974 -12.51895 145.894058 58.344898 -60.522134 156.563107 -101.356566 59.343565 -35.965139 141.515821 17.000806 -165.373641 48.370342 -68.992853 -30.073577 -28.638064 40.601926 -73.299476
8.7178 67.6623 6.7332 152.461335 89.272009 152.124673 -1.536327 14.505812 179.978201 -2.708626 5.756838 -179.893563 3.075846 26.744411 99.905493 -35.061875 13.870409 -128.204913 -6.726747 -1.032955 17.440941 14.300289 0.151626 1.20866 -124.52591 58.149241 128.262263 104.396849 -52.39789 109.916982 -50.589432 -17.588486 91.682877 10.766636 -35.592773 4.064668 -166.879422 -6.611659 91.009334 -1.061241 -45.800207 6.249616 -14.163505 21.872211 9.606949 173.176264 -28.025722 110.120241 -162.331378 -32.263394 150.1935 7.659892 14.038037 9.621966 -131.241483 19.522065 166.404642 49.062071 46.959426 -15.528261 -91.264989 -58.093374 -79.63489 37.162532 22.584136 -30.33492 158.809442 -30.334241 -167.019379 -142.848536 -4.039929 164.520682 -163.731677 24.939559 -63.32107 158.82894 33.308765 -131.155783 175.968552 -21.324496 -84.874783 88.627922 -0.403079 -38.787976 42.702759 46.24023 -49.120921 177.982941 -53.505162 -125.844255 1.654623 -7.59454 6.580899 138.838199 26.415639 -139.782845 10.077898 16.047332 -1.629035 -46.225301 -69.282823 -21.559586 19.144398 22.723772 7.681986 106.885372 -81.251627 122.700521 127.538792 68.028359 45.342423 -170.529841 34.801875 177.862669 -13.510636 -63.446124 -174.102207 87.083577 -58.93783 -6.75939 -177.228084 68.390723 8.314861 -176.714569 26.33324 13.884368 -7.217248 77.339726 -146.487537 51.359106 9.738674 159.041538
8.7081 67.6171 6.1996 140.24868 89.346304 139.825781 -1.737345 18.909 11.119889 0.770247 -10.915619 -10.20761 -18.58524 24.056794 -60.828177 35.97395 -3.225888 33.004441 -7.371125 -0.926171 14.303949 14.704813 0.33893 2.626244 3.987212 -55.718588 -11.411834 -126.408193 -31.431022 -158.833855 169.055715 -47.811051 -93.127588 -12.271683 29.799511 2.802796 172.334208 -26.48109 88.567329 -133.548352 15.419134 76.673515 -148.988999 -15.375035 122.414461 -44.503608 61.792455 38.908789 -4.222912 26.844238 2.198748 -8.442355 -5.837262 -6.933333 -136.069998 -1.300456 174.236878 -120.457439 -48.142244 -172.131443 -98.330105 -57.508908 -87.829856 17.726222 12.698902 -30.068176 153.113921 11.847738 -157.795531 159.912746 63.561068 -109.018478 85.883292 83.231484 -178.906995 3.2384 -25.946746 6.646183 -3.680416 5.844562 -4.788362 145.00498 -52.863582 -135.901057 -41.740315 -46.003939 9.644553 4.419268 4.11708 -8.858195 167.96675 -26.999652 -150.383034 -47.552529 -79.998311 -33.00653 9.639823 8.344524 0.551133 -73.948582 -81.996524 -44.163696 -49.428822 75.132468 42.875362 162.993956 8.212104 170.611895 -10.643073 1.715428 -15.682855 11.476889 -36.805519 27.21663 44.350225 65.861304 -171.72875 150.86993 -31.464733 -111.580418 29.665863 8.486857 8.998783 -31.935681 -47.015431 63.78475 75.087118 12.941515 20.785983 -164.91745 0.82073 87.451209
8.7046 67.5789 5.6144 121.505913 89.456723 121.088223 -0.836387 13.738103 -176.388423 -1.580886 5.967083 177.757961 1.973607 22.377983 71.91781 -31.888343 -3.370718 -103.519637 -7.875906 -0.743132 10.763659 15.143329 0.512968 3.857644 -157.078373 -16.755941 165.004371 -22.499161 15.139867 -7.085076 4.065432 -9.079641 -130.733418 171.764557 -18.765291 144.238885 -6.273247 7.455745 -0.122613 -133.04222 -28.335468 106.771411 -134.547969 10.230076 114.211827 -138.588301 29.988674 119.931153 16.957522 -60.180351 -10.931976 -19.393225 21.387235 21.489439 -137.456413 -32.912372 -175.116038 -136.995435 -29.802457 167.309985 -139.386122 -31.358533 -132.144671 -34.883954 -8.919614 -29.61337 155.806271 -0.799558 -160.565383 -132.419638 -16.637466 -169.190433 160.324239 9.727197 -50.003506 173.087691 -0.244136 -140.204618 8.003977 14.901795 -8.75948 156.630732 -79.513113 -130.844356 141.365826 -36.913499 -126.031596 -160.33407 -59.474282 -81.312102 172.818789 -50.015199 -150.671168 169.546866 15.749859 -147.241183 9.634933 -3.221986 3.92324 145.190929 -9.215705 -167.593792 150.919266 -22.894334 113.244042 -35.077198 34.007195 35.337821 -27.337551 7.666063 -27.049168 37.076054 -30.165761 34.019039 49.22703 63.835831 89.393005 98.379483 35.553192 176.902115 42.713289 11.6805 16.98144 -50.08049 -40.720499 -78.179319 -71.463543 32.302918 179.520457 -162.577144 15.513301 77.2736
8.7232 67.55409999999999 4.9785 87.1146 89.521347 86.781453 -0.947386 17.943547 4.509225 1.287758 -10.670347 -2.249051 -18.331921 30.491824 -94.981658 38.4913 17.406674 62.891741 -8.2241 -0.491026 6.821999 15.609539 0.663499 4.837839 -136.854406 -82.088931 -160.007943 -76.757296 -58.724093 -91.369913 35.66945 12.037878 -143.231326 -177.834318 13.88279 144.79457 155.00076 -38.831603 82.034417 -172.546189 -23.636264 117.223728 -10.961016 17.823538 6.666903 0.065926 -6.050541 -1.911928 -161.98694 -44.213499 154.273997 -155.553169 -23.862439 137.362699 7.427476 -7.607605 3.565491 -179.946342 -27.141708 173.252964 -4.607654 28.525966 18.815363 -99.18797 66.801297 163.451759 161.203531 -58.369675 -171.279283 -126.815409 34.744925 138.276864 -173.412066 -1.205914 -50.61821 163.994391 24.348894 -133.935133 143.311194 6.088038 -83.956073 129.92391 -10.455455 -68.124198 14.75834 36.435235 -24.711369 175.220607 -26.216707 -127.010897 150.582071 26.668069 -138.777597 9.662493 8.358386 -11.146397 8.571438 13.37527 -1.530935 145.625268 5.816108 -164.463621 11.727849 37.226904 2.350319 -21.289919 -63.384996 -18.716287 124.050797 68.319743 44.436508 -164.47592 37.152399 -170.424662 -53.774152 -55.020469 -149.54154 -172.017019 24.261414 108.270257 156.456216 64.720632 23.619493 -161.57514 23.960675 -19.158586 -51.53047 69.21282 -168.693376 49.491689 67.353111 -156.377125
8.7795 67.5476 4.2937 47.461699 89.361413 47.277455 -0.33592 12.54732 -175.143149 -1.076813 5.74418 177.888373 1.665573 21.822474 64.257518 -29.899634 -8.00267 -94.685787 -8.412072 -0.18872 2.565752 16.059553 0.786706 5.572367 -8.271866 33.147709 8.890407 50.415624 -16.391155 32.749202 168.032163 -8.66105 44.824314 176.228138 -4.399202 145.095692 -168.450675 -6.367371 92.003834 103.740038 -70.140732 81.269412 -7.765166 13.855582 4.296005 -2.069991 -2.779155 -0.625281 11.679391 -42.60876 -13.245307 -159.114698 13.81322 122.977109 5.717153 -0.906246 5.051676 -45.041245 73.690147 38.030064 -14.076746 -23.52686 2.25366 -153.903164 62.120455 -127.663869 144.922046 36.0493 -147.924415 146.78415 41.198324 -98.486229 109.364302 67.680258 150.886387 -1.065209 -37.010439 7.193316 164.923129 -11.838308 -85.678533 -1.658583 -45.125494 -18.038795 139.070305 -30.056485 -123.760903 -8.785255 29.497242 -6.088968 168.447443 -42.670742 -150.151994 4.719089 -6.801586 2.832893 7.990869 14.368606 -2.061552 151.080282 -34.778825 -169.968845 3.708669 50.650799 2.01615 141.931258 -1.110835 177.1089 15.219338 -0.179638 8.830286 -28.148342 -31.333578 -68.582462 -65.029653 32.943786 -1.677705 133.136451 24.197852 -29.32048 142.835476 61.761352 30.449763 -154.369602 20.542368 109.798436 73.358666 -16.763706 158.563472 -10.738177 61.363079 108.068348
